<svg width="19" height="16" viewBox="0 0 19 16" fill="none" xmlns="http://www.w3.org/2000/svg">
<path d="M15.1042 11.0625L12.4375 8.39583C12.5486 8.15972 12.6319 7.92028 12.6875 7.6775C12.7431 7.43417 12.7708 7.17361 12.7708 6.89583C12.7708 5.85417 12.4064 4.96861 11.6775 4.23917C10.9481 3.51028 10.0625 3.14583 9.02083 3.14583C8.74306 3.14583 8.4825 3.17361 8.23917 3.22917C7.99639 3.28472 7.75694 3.36806 7.52083 3.47917L5.39583 1.35417C5.96528 1.11806 6.54861 0.940833 7.14583 0.8225C7.74306 0.704722 8.36806 0.645833 9.02083 0.645833C11.0069 0.645833 12.7917 1.17 14.375 2.21833C15.9583 3.26722 17.1458 4.63195 17.9375 6.3125C17.9792 6.38195 18.0069 6.46861 18.0208 6.5725C18.0347 6.67695 18.0417 6.78472 18.0417 6.89583C18.0417 7.00694 18.0314 7.11445 18.0108 7.21833C17.9897 7.32278 17.9653 7.40972 17.9375 7.47917C17.6181 8.1875 17.2189 8.84722 16.74 9.45833C16.2606 10.0694 15.7153 10.6042 15.1042 11.0625ZM14.9375 15.5625L12.0208 12.6875C11.5347 12.8403 11.0453 12.955 10.5525 13.0317C10.0592 13.1078 9.54861 13.1458 9.02083 13.1458C7.03472 13.1458 5.25 12.6217 3.66667 11.5733C2.08333 10.5244 0.895833 9.15972 0.104167 7.47917C0.0625 7.40972 0.0347223 7.32278 0.0208334 7.21833C0.00694452 7.11445 0 7.00694 0 6.89583C0 6.78472 0.00694452 6.68056 0.0208334 6.58333C0.0347223 6.48611 0.0625 6.40278 0.104167 6.33333C0.395833 5.70833 0.743056 5.13194 1.14583 4.60417C1.54861 4.07639 1.99306 3.59028 2.47917 3.14583L0.75 1.39583C0.597222 1.24306 0.520833 1.05194 0.520833 0.8225C0.520833 0.593611 0.604167 0.395833 0.770833 0.229167C0.923611 0.076389 1.11806 0 1.35417 0C1.59028 0 1.78472 0.076389 1.9375 0.229167L16.1042 14.3958C16.2569 14.5486 16.3369 14.7397 16.3442 14.9692C16.3508 15.1981 16.2708 15.3958 16.1042 15.5625C15.9514 15.7153 15.7569 15.7917 15.5208 15.7917C15.2847 15.7917 15.0903 15.7153 14.9375 15.5625ZM9.02083 10.6458C9.17361 10.6458 9.31583 10.6389 9.4475 10.625C9.57972 10.6111 9.72222 10.5833 9.875 10.5417L5.375 6.04167C5.33333 6.19445 5.30556 6.33694 5.29167 6.46917C5.27778 6.60083 5.27083 6.74306 5.27083 6.89583C5.27083 7.9375 5.63528 8.82306 6.36417 9.5525C7.09361 10.2814 7.97917 10.6458 9.02083 10.6458ZM11.2292 7.1875L8.72917 4.6875C9.52083 4.5625 10.1667 4.78472 10.6667 5.35417C11.1667 5.92361 11.3542 6.53472 11.2292 7.1875Z" fill="#616161"/>
</svg>
